<svg version="1.1" xmlns="http://www.w3.org/2000/svg" x="0" y="0" viewBox="0 0 715.18 167.18" xml:space="preserve">
  <path d="M507 55.99c7.14-.87 12.15 5.11 11.06 12.73-1.49 10.41-1.86 20.97-2.72 31.47-.55 6.71-1.56 13.43-1.55 20.14.01 5.89 1.07 11.78 1.86 17.65.15 1.13 1.25 2.14 2.74 4.52 5.2-6.64 10.18-12.34 14.4-18.56a848.981 848.981 0 0022.18-34.38c5.17-8.46 9.81-17.25 14.43-26.03 1.55-2.95 3.28-3.27 5.92-1.88 7.14 3.76 10.36 10.66 13.99 17.25 3.97 7.18 7.96 14.35 11.99 21.49.62 1.1 1.51 2.04 2.57 3.44 12.12-8.97 24.07-17.64 35.78-26.61 2.74-2.1 4.81-5.14 6.95-7.93 2.28-2.96 4.37-2.2 7.04-.51 4.85 3.05 6 8.02 7.54 12.9 1.9 6.02 4.69 11.89 5.68 18.04.98 6.11.22 12.5.22 18.92 10.99 1.28 14.64 9.07 18.01 17.18 1.07 2.58 2.34 5.07 3.52 7.6 2.4-1.77 5.15-3.22 7.14-5.36 7.05-7.58 7.76-17.09 7.83-26.83.06-8.03-3.85-14.64-6.71-21.72-1.12-2.77-.42-6.27-.55-9.43 2.83 1.55 7.09 2.43 8.21 4.79 3.56 7.51 5.9 15.59 8.78 23.43 2.92 7.93 2.01 15.83-.13 23.72-2.74 10.15-7.71 18.96-16.63 24.9-3.45 2.3-7.55 2.57-10.16-1.71-3.23-5.28-6.36-10.63-9.19-16.13-1.61-3.13-2.39-5.39-6.66-2.51-5.2 3.5-9.53 7.09-11.64 13.34-2.55 7.56-15.61 11.07-19.76 5.33-1.8-2.49-2.51-6.98-1.63-9.95 2.46-8.32 6.37-15.99 14.48-20.65 4.17-2.4 4.3-7.03 4.84-11.09 1.19-8.95-.92-17.45-4.36-25.91-.97.22-2.11.16-2.8.68-10.99 8.32-21.91 16.73-32.86 25.1-1.01.78-2.19 1.36-3.12 2.22-3.34 3.11-6.37 5.73-5.01 11.6 1.39 6.02 1.71 12.9-5.37 16.94-3.21 1.83-9.5 1.68-12.37-.7-5.3-4.41-6.25-7.19-4.1-12.29 2-4.76 4.41-9.38 5.93-14.29.89-2.88 1.43-6.65.29-9.22-4.05-9.2-8.87-18.06-13.43-27.03-.19-.38-.7-.59-1.26-1.03-8.53 13.63-16.77 27.27-25.52 40.59-6.24 9.51-13.01 18.69-19.89 27.75-2.09 2.75-5.16 4.9-8.12 6.83-3.92 2.56-11.01-.18-15.51-5.3-5.32-6.06-6.28-13.39-7.36-21.67-1.51 1.78-3.34 3.38-4.48 5.37-5.24 9.18-12.26 16.42-22.9 18.42-3.36.63-8-1.05-10.88-3.23-7.95-6.01-12.19-14.36-12.26-24.51-.06-9.59-.01-19.18-.01-30.25-4.19 4.75-7.57 8.39-10.73 12.21-5.33 6.42-10.46 13-15.78 19.43-3.06 3.69-6.59 7.02-9.47 10.83-6.86 9.08-16.4 14.68-25.9 20.36-3.98 2.38-10.74.36-13.63-4.36-2.52-4.12-4.97-8.33-4.42-13.61 1.33-12.71 2.77-25.42 3.5-38.17.31-5.31-1.07-10.71-1.8-17.13-3.46.53-6.76.95-10.03 1.56-4.48.83-8.97 1.7-13.4 2.76-5.87 1.4-11.77 2.79-17.48 4.69-1.26.42-2.5 2.93-2.57 4.53-.27 5.62.29 11.28-.04 16.9-.91 15.25-3.62 30.24-10.51 43.95-4.11 8.18-16.07 13.3-25.43 6.34-6.12-4.55-10.57-10.19-12.16-17.84-.3-1.43-1.38-2.69-1.87-3.59-7.8 6.45-15.09 12.7-22.63 18.63-7.69 6.05-22.48 7.22-29.13 1.84-7.15-5.79-12.68-13.19-14.05-22.51-1.27-8.58-1.47-17.31-2.11-25.98-.15-2.08-.2-4.17-1.28-6.55-.95 1.57-2.04 3.07-2.82 4.71-3.94 8.26-8.93 15.89-16.69 20.86-17.11 10.95-29.56 7.69-38.98-9.71-5.12-9.45-9.48-19.28-10.62-30.32-.69-6.73-2.91-13.31-4.63-20.8-.9.8-2.42 1.49-2.71 2.53-1.48 5.32-2.59 10.74-3.93 16.1-1.48 5.92-3.09 11.81-4.57 17.74-1.86 7.42-3.76 14.84-5.43 22.3-1.59 7.06-4.74 13.14-9.58 18.6-5.19 5.85-13.66 2.88-18.31-1.42-7.46-6.9-11.67-15.99-14.46-25.82-2.6-9.13-5.93-18.06-8.97-27.07-4.27-12.67-8.61-25.33-12.84-38.01-4.04-12.08-7.23-24.51-12.21-36.18-3.79-8.89-14.66-13.78-24.09-4.6-7.11 6.92-9.49 14.77-6.24 24.33.47 1.4-.22 3.96-1.31 4.88-.91.77-3.68.52-4.77-.35C5.43 44.14 3.7 42 2.69 39.75-2.4 28.46-.11 15.27 8.38 6.7 15.1-.08 23.01-1.9 31.91 2.05c7.17 3.19 14.96 6.01 19.62 12.47 4.33 6.01 7.73 12.91 10.33 19.86C67.53 49.57 72.51 65 77.63 80.37c4.84 14.51 9.38 29.11 14.31 43.58 1.6 4.68 3.94 9.12 6.13 13.57 1.09 2.22 2.75 3.25 4.1.12 2.01-4.67 4.24-9.3 5.7-14.15 1.96-6.53 3.14-13.29 4.9-19.89 3.01-11.24 6.09-22.47 9.38-33.64 1.76-5.97 4.11-11.76 6.01-17.68 2.03-6.33 4.02-12.68 5.68-19.1 1.22-4.75 4.79-3.79 7.96-3.74 3.42.06 6.24 1.32 6.32 5.32.1 4.8-.47 9.65.02 14.41.73 7.11 2.18 14.14 3.24 21.21.87 5.85 1.41 11.76 2.44 17.58 2.33 13.14 6.61 25.63 13.49 37.15.88 1.47 2.1 2.73 3.1 4.02 14.4-5.43 20.14-18.38 27.22-30.06 5.52-9.11 8.43-19.2 10.34-29.59 1.38-7.51 2.67-15.04 3.92-22.57.85-5.1 2.84-5.59 7.86-3.83 6.65 2.34 8.28 6.66 8.06 13.11-.83 24.3-1.61 48.6-1.81 72.91-.07 8.43 2.22 16.6 7.52 23.73 1.87 2.52 3.47 2.46 5.85 1.55 8.42-3.2 14.44-9.65 20.61-15.67 5.74-5.6 10.49-12.2 15.98-18.07 1.04-1.11 3.52-1.25 5.31-1.19 2.73.08 3.65-.59 4.66-3.5 1.92-5.49 4.94-10.67 7.95-15.71 2.52-4.21 5.6-8.1 8.57-12.02 2.8-3.7 6.44-6.99 11.19-6.53 6.35.6 11.35-2.48 16.86-4.33 6.22-2.09 12.47-4.15 18.84-5.67 5.91-1.41 12.01-2.05 18-3.13 5.32-.96 14.89 6.81 16.3 12.75 3.77 15.85 2.38 31.85 1.64 47.82-.19 3.98-1.34 7.91-2.24 12.93 7.53-1.87 12.48-5.44 16.63-10.13 12.66-14.33 25.8-28.29 37.58-43.31 7.11-9.07 14.22-18.66 16.45-30.65.94-5.01 3.65-5.6 7.36-1.98 2.87 2.81 4.71 5.93 4.51 10.3-.83 18.49-1.77 36.99-1.86 55.5-.03 6.39 2.3 12.8 3.59 19.34 9.25-2.41 13.3-8.62 17.51-14.69 6.22-8.97 10.39-18.78 12.75-29.44 2.99-13.47 6.18-26.87 9.44-41.01zM317.19 94.62c-2.24 2.81-3.9 4.68-5.31 6.72-6.41 9.29-12.78 18.61-19.07 27.99-.65.96-1.12 2.49-.85 3.54 1.82 6.97 3.68 13.94 6.05 20.73.3.85 4.36 1.55 5.45.72 2.45-1.86 4.71-4.45 6.02-7.23 7.64-16.25 9.51-33.45 7.71-52.47z" fill="#fff"/>
</svg>
